<?xml version="1.0" encoding="utf-8"?>
<!-- Generator: Adobe Illustrator 16.0.0, SVG Export Plug-In . SVG Version: 6.00 Build 0)  -->
<!DOCTYPE svg PUBLIC "-//W3C//DTD SVG 1.1//EN" "http://www.w3.org/Graphics/SVG/1.1/DTD/svg11.dtd">
<svg version="1.1" id="Layer_1" xmlns="http://www.w3.org/2000/svg" xmlns:xlink="http://www.w3.org/1999/xlink" x="0px" y="0px"
	 width="622.089px" height="150.605px" viewBox="0 0 622.089 150.605" enable-background="new 0 0 622.089 150.605"
	 xml:space="preserve">
<g>
	<g>
		<path fill="#234F92" d="M266.878,52.414c-1.564-2.862-3.809-5.287-6.672-7.212c-2.41-1.604-5.203-2.797-8.301-3.546
			c-3.064-0.742-6.844-1.119-11.232-1.119h-20.508v74.102h11.383V87.675h8.736c5.262,0,9.696-0.646,13.176-1.923
			c3.508-1.284,6.59-3.242,9.162-5.814c2.082-2.085,3.726-4.575,4.879-7.408c1.158-2.829,1.744-5.94,1.744-9.249
			C269.246,58.942,268.449,55.286,266.878,52.414z M231.548,50.56h8.64c2.969,0,5.446,0.213,7.364,0.636
			c1.877,0.411,3.57,1.099,5.025,2.038c1.636,1.071,2.872,2.468,3.67,4.157c0.812,1.721,1.227,3.783,1.227,6.133
			c0,2.025-0.301,3.869-0.896,5.478c-0.581,1.59-1.602,3.134-3.025,4.587c-1.404,1.405-3.27,2.449-5.545,3.103
			c-2.332,0.671-5.439,1.011-9.23,1.011h-7.229L231.548,50.56L231.548,50.56z"/>
		<path fill="#234F92" d="M313.275,67.789c-1.074-2.491-2.658-4.555-4.707-6.131c-2.066-1.592-4.535-2.734-7.342-3.392
			c-5.117-1.194-12.314-1.36-19.332-0.08c-3.203,0.581-5.705,1.128-7.433,1.622l-0.639,0.184v10.827h1.345l0.328-0.064
			c2.93-1.174,5.807-2.084,8.553-2.702c4.983-1.126,9.025-1.104,12.709-0.547c1.604,0.241,2.986,0.708,4.115,1.389
			c1.146,0.688,2.038,1.649,2.649,2.852c0.627,1.234,0.945,2.831,0.945,4.75v0.572c-4.741,0.26-9.25,0.637-13.413,1.126
			c-4.479,0.525-8.379,1.551-11.596,3.04c-3.242,1.519-5.781,3.642-7.55,6.312c-1.767,2.681-2.663,6.202-2.663,10.47
			c0,5.238,1.719,9.615,5.109,13.011c3.393,3.396,7.584,5.117,12.459,5.117c2.592,0,4.891-0.264,6.836-0.781
			c1.936-0.519,3.674-1.17,5.141-1.926c1.284-0.609,2.619-1.435,3.969-2.449c0.631-0.478,1.201-0.903,1.707-1.278v4.93h10.406
			V76.931C314.873,73.326,314.335,70.251,313.275,67.789z M304.467,86.228v13.743c-2.016,1.595-4.213,2.981-6.536,4.129
			c-2.396,1.179-5.078,1.777-7.974,1.777c-3.431,0-5.987-0.719-7.601-2.14c-1.602-1.406-2.381-3.485-2.381-6.355
			c0-2.5,0.693-4.474,2.059-5.865c1.428-1.456,3.336-2.549,5.674-3.246c2.026-0.597,4.839-1.059,8.359-1.377
			C299.232,86.609,302.033,86.385,304.467,86.228z"/>
		<path fill="#234F92" d="M555.919,67.789c-1.072-2.491-2.656-4.552-4.709-6.131c-2.066-1.592-4.535-2.734-7.342-3.392
			c-5.117-1.194-12.301-1.362-19.33-0.08c-3.203,0.581-5.705,1.128-7.436,1.622l-0.639,0.184v10.827h1.344l0.328-0.064
			c2.928-1.174,5.805-2.084,8.557-2.702c4.986-1.128,9.02-1.104,12.709-0.547c1.604,0.241,2.982,0.708,4.109,1.389
			c1.16,0.698,2.029,1.632,2.652,2.852c0.625,1.229,0.941,2.829,0.941,4.75v0.572c-4.744,0.26-9.252,0.637-13.408,1.126
			c-4.475,0.525-8.377,1.549-11.596,3.04c-3.244,1.521-5.787,3.644-7.549,6.312c-1.768,2.678-2.662,6.199-2.662,10.472
			c0,5.238,1.719,9.615,5.107,13.011c3.391,3.396,7.58,5.117,12.455,5.117c2.59,0,4.891-0.264,6.84-0.781
			c1.932-0.518,3.67-1.17,5.139-1.926c1.281-0.604,2.615-1.431,3.969-2.449c0.633-0.478,1.199-0.901,1.705-1.275v4.927h10.408
			V76.931C557.515,73.326,556.978,70.251,555.919,67.789z M547.107,86.228v13.745c-2.006,1.586-4.201,2.974-6.533,4.127
			c-2.396,1.179-5.078,1.777-7.977,1.777c-3.43,0-5.982-0.719-7.6-2.14c-1.6-1.403-2.377-3.483-2.377-6.355
			c0-2.539,0.672-4.457,2.059-5.865c1.428-1.456,3.336-2.549,5.67-3.246c2.027-0.597,4.842-1.059,8.361-1.377
			C541.876,86.609,544.675,86.385,547.107,86.228z"/>
		<path fill="#234F92" d="M453.027,82.616c0-8.061-2.082-14.394-6.189-18.818c-4.123-4.44-10.037-6.692-17.576-6.692
			c-8.121,0-14.77,2.728-19.764,8.104c-4.975,5.356-7.496,12.668-7.496,21.73c0,9.18,2.639,16.381,7.846,21.402
			c5.197,5.018,12.498,7.561,21.697,7.561c3.588,0,7.064-0.452,10.336-1.344c3.238-0.884,6.447-1.992,9.537-3.293l0.541-0.229V99.61
			h-1.705l-0.25,0.226c-1.506,1.35-4.104,2.757-7.729,4.186c-6.334,2.495-13.037,2.759-18.195,1.028
			c-2.188-0.732-4.098-1.848-5.689-3.312c-1.643-1.491-2.955-3.437-3.904-5.776c-0.867-2.14-1.346-4.663-1.428-7.508h39.971v-5.837
			H453.027z M417.714,70.463c2.713-2.697,6.436-4.064,11.062-4.064c4.574,0,8.01,1.228,10.205,3.645
			c2.068,2.281,3.199,5.526,3.367,9.65h-29.195C413.666,76.065,415.199,72.965,417.714,70.463z"/>
		<g>
			<rect x="493.748" y="40.052" fill="#234F92" width="12.062" height="11.235"/>
			<rect x="494.332" y="58.609" fill="#234F92" width="10.896" height="56.028"/>
		</g>
		<path fill="#234F92" d="M356.816,58.77l-0.303-0.035c-0.75-0.082-1.945-0.126-3.551-0.126c-2.994,0-5.965,0.639-8.83,1.896
			c-2.455,1.075-5.26,2.817-8.357,5.188v-7.084h-10.898v56.028h10.898V75.654c2.266-1.807,4.645-3.305,7.074-4.46
			c2.496-1.187,5.115-1.785,7.783-1.785c1.707,0,3.201,0.07,4.441,0.216c0.311,0.034,0.625,0.082,0.941,0.133l1.289,0.2v-10.71
			L356.816,58.77z"/>
		<path fill="#234F92" d="M490.382,58.825l-0.307-0.09c-0.748-0.082-1.941-0.126-3.547-0.126c-2.992,0-5.967,0.639-8.834,1.896
			c-2.451,1.075-5.258,2.819-8.355,5.19v-7.086h-10.898v56.028h10.896V75.654c2.27-1.807,4.648-3.307,7.076-4.46
			c2.494-1.187,5.111-1.785,7.781-1.785c1.707,0,3.199,0.07,4.443,0.216c0.311,0.034,0.629,0.085,0.947,0.133l1.283,0.2v-10.89
			L490.382,58.825z"/>
		<path fill="#234F92" d="M383.9,67.03c2.697,0,5.506,0.567,8.346,1.687c2.23,0.878,4.477,2.097,6.678,3.622l1.387,0.958V61.164
			l-0.529-0.229c-2.199-0.958-4.137-1.671-6.09-2.242c-3.066-0.896-6.23-1.347-9.4-1.347c-8.211,0-14.922,2.64-19.945,7.849
			c-5.016,5.198-7.561,12.434-7.561,21.503c0,4.846,0.672,9.146,1.996,12.784c1.334,3.672,3.254,6.758,5.693,9.164
			c2.416,2.417,5.355,4.244,8.738,5.432c3.355,1.179,7.08,1.776,11.076,1.776c3.139,0,6.156-0.421,8.969-1.252
			c1.869-0.553,4.004-1.356,6.523-2.454l0.529-0.232v-10.328l-0.174-1.562l-1.383,0.953c-0.258,0.18-0.512,0.354-0.811,0.55
			c-1.139,0.742-2.369,1.454-3.658,2.116c-1.467,0.746-3.141,1.359-4.969,1.823c-1.824,0.465-3.646,0.701-5.416,0.701
			c-5.086,0-8.908-1.62-11.689-4.954c-2.779-3.335-4.188-8.22-4.188-14.518c0-6.486,1.438-11.45,4.277-14.754
			C375.148,68.635,378.941,67.03,383.9,67.03z"/>
	</g>
	<g>
		<path fill="#234F92" d="M0,65.389c4.069-12.632,16.866-24.905,41.848-31.45c0,0-36.066,20.717-29.697,34.132
			c5.221,11.003,23.718-1.929,23.718-1.929L132.67,0H0V65.389z"/>
		<path fill="#234F92" d="M108.758,116.665c0,0,36.066-20.717,29.697-34.132c-5.221-11.003-23.719,1.929-23.719,1.929
			l-96.802,66.145h132.671V85.214C146.536,97.844,133.741,110.12,108.758,116.665z"/>
		<path fill="#234F92" d="M137.106,49.559c6.508,4.154,11.24,10.25,13.5,17.16V0H132.67L51.296,99.694
			c0,0-13.305,17.162-37.796,1.351C6.992,96.89,2.259,90.794,0,83.884v66.723h17.935L99.31,50.909
			C99.309,50.908,112.614,33.746,137.106,49.559z"/>
	</g>
</g>
</svg>
