<?xml version="1.0" encoding="utf-8"?>
<!-- Generator: Adobe Illustrator 16.0.0, SVG Export Plug-In . SVG Version: 6.00 Build 0)  -->
<!DOCTYPE svg PUBLIC "-//W3C//DTD SVG 1.1//EN" "http://www.w3.org/Graphics/SVG/1.1/DTD/svg11.dtd">
<svg version="1.1" id="Layer_1" xmlns="http://www.w3.org/2000/svg" xmlns:xlink="http://www.w3.org/1999/xlink" x="0px" y="0px"
	 width="50px" height="50px" viewBox="0 0 50 50" enable-background="new 0 0 50 50" xml:space="preserve">
<g>
	<path fill="#FFFFFF" d="M27.089,19.158c-0.212-0.122-0.418-0.139-0.616-0.05c-0.308,0.141-0.611,0.474-0.916,1
		s-0.439,0.958-0.408,1.294c0.02,0.221,0.136,0.393,0.348,0.515c0.213,0.123,0.418,0.137,0.614,0.04
		c0.308-0.14,0.613-0.473,0.918-0.999c0.301-0.521,0.437-0.953,0.406-1.294C27.417,19.45,27.302,19.281,27.089,19.158z"/>
	<path fill="#FFFFFF" d="M30.904,28.089c-0.213-0.123-0.418-0.136-0.614-0.04c-0.308,0.141-0.612,0.473-0.917,1
		c-0.305,0.526-0.439,0.958-0.407,1.293c0.019,0.215,0.134,0.383,0.347,0.506s0.416,0.141,0.615,0.051
		c0.309-0.14,0.613-0.474,0.918-1s0.44-0.959,0.41-1.299C31.232,28.381,31.117,28.212,30.904,28.089z"/>
	<path fill="#FFFFFF" d="M24.755,12.137l-10.144,5.016l0.113,1.772c-0.449,0.073-0.919,0.171-1.397,0.299
		c-2.068,0.555-3.729,1.471-4.228,2.338c-0.156,0.271-0.202,0.533-0.136,0.781c0.067,0.248,0.237,0.453,0.508,0.609
		c0.866,0.5,2.763,0.465,4.83-0.091c0.229-0.061,0.448-0.128,0.665-0.196l0.372,5.78l16.311,9.418l9.416-16.311L24.755,12.137z
		 M14.14,22.255c-2.619,0.702-4.444,0.399-4.569-0.075c-0.021-0.081,0.002-0.184,0.072-0.305c0.334-0.578,1.681-1.465,3.848-2.045
		c0.453-0.122,0.875-0.207,1.274-0.274l0.16,2.465C14.677,22.104,14.414,22.183,14.14,22.255z M17.684,20.564
		c-0.213-0.305-0.312-0.672-0.278-1.042c0.177,0.043,0.331,0.094,0.438,0.155c0.121,0.07,0.193,0.146,0.215,0.229
		c0.022,0.083-0.002,0.184-0.072,0.306C17.925,20.317,17.814,20.439,17.684,20.564z M18.175,21.023
		c-0.014-0.008-0.02-0.021-0.033-0.029c0.159-0.157,0.299-0.313,0.389-0.47c0.156-0.271,0.202-0.533,0.136-0.781
		c-0.067-0.248-0.238-0.452-0.509-0.608c-0.155-0.09-0.354-0.157-0.571-0.213c0.007-0.013,0.007-0.028,0.016-0.043
		c0.434-0.751,1.392-1.008,2.144-0.574c0.752,0.435,1.008,1.393,0.574,2.144C19.886,21.2,18.927,21.458,18.175,21.023z
		 M23.685,21.869c-0.267-0.434-0.382-0.901-0.345-1.401c0.036-0.5,0.181-0.968,0.434-1.406c0.25-0.433,0.582-0.79,0.997-1.071
		c0.414-0.282,0.875-0.415,1.386-0.401c0.511,0.014,1.03,0.174,1.562,0.48c0.782,0.451,1.27,1.03,1.463,1.736
		c0.191,0.705,0.073,1.43-0.354,2.173c-0.433,0.748-1.002,1.215-1.709,1.4c-0.707,0.187-1.452,0.054-2.234-0.397
		C24.352,22.675,23.952,22.305,23.685,21.869z M21.978,28.059l11.142-6.871l1.347,0.777L23.31,28.826L21.978,28.059z M30.936,32.316
		c-0.709,0.188-1.455,0.056-2.242-0.398c-0.525-0.304-0.924-0.676-1.191-1.113c-0.268-0.437-0.383-0.904-0.346-1.4
		s0.183-0.965,0.435-1.401c0.253-0.438,0.585-0.797,0.996-1.077c0.412-0.279,0.873-0.414,1.388-0.4
		c0.514,0.014,1.033,0.172,1.561,0.476c0.785,0.454,1.273,1.035,1.466,1.743s0.072,1.434-0.356,2.177
		C32.213,31.662,31.645,32.128,30.936,32.316z"/>
</g>
</svg>
