<?xml version="1.0" encoding="utf-8"?>
<!-- Generator: Adobe Illustrator 16.0.0, SVG Export Plug-In . SVG Version: 6.00 Build 0)  -->
<!DOCTYPE svg PUBLIC "-//W3C//DTD SVG 1.1//EN" "http://www.w3.org/Graphics/SVG/1.1/DTD/svg11.dtd">
<svg version="1.1" id="Capa_1" xmlns="http://www.w3.org/2000/svg" xmlns:xlink="http://www.w3.org/1999/xlink" x="0px" y="0px"
	 width="20.646px" height="24.643px" viewBox="0 0 20.646 24.643" enable-background="new 0 0 20.646 24.643" xml:space="preserve">
<path fill="#FFFFFF" d="M10.167,10.188h1.363l5.194-5.606H3.661l5.19,5.606H10.167z M10.141,9.827L8.401,4.84h3.503L10.141,9.827z
	 M11.852,4.006h4.857L13.576,0h-3.385H6.808L3.676,4.006h4.279H11.852z M13.424,0.256l-1.566,3.091l-1.533-3.091H13.424z
	 M6.84,0.256h2.914L8.301,3.343L6.84,0.256z M17.098,6.527C16.834,6.3,16.44,6.328,16.214,6.589c-0.229,0.262-0.2,0.655,0.06,0.885
	c1.982,1.724,3.119,4.22,3.119,6.846c0,5.001-4.065,9.07-9.068,9.07c-5.004,0-9.07-4.069-9.07-9.07c0-2.562,1.087-5.017,2.991-6.733
	c0.257-0.23,0.275-0.629,0.044-0.884C4.057,6.444,3.662,6.425,3.405,6.656C1.24,8.609,0,11.404,0,14.318
	c0,5.692,4.631,10.323,10.324,10.323c5.692,0,10.322-4.631,10.322-10.323C20.647,11.329,19.355,8.49,17.098,6.527z"/>
</svg>
