<?xml version="1.0" encoding="utf-8"?>
<!-- Generator: Adobe Illustrator 16.0.0, SVG Export Plug-In . SVG Version: 6.00 Build 0)  -->
<!DOCTYPE svg PUBLIC "-//W3C//DTD SVG 1.1//EN" "http://www.w3.org/Graphics/SVG/1.1/DTD/svg11.dtd">
<svg version="1.1" id="Layer_1" xmlns="http://www.w3.org/2000/svg" xmlns:xlink="http://www.w3.org/1999/xlink" x="0px" y="0px"
	 width="800px" height="800px" viewBox="0 0 800 800" enable-background="new 0 0 800 800" xml:space="preserve">
<g>
	<path fill="none" d="M325.645,527.579c0,18.253,0,33.069,0,49.833c0.074,0,0.146,0,0.223,0v-49.833
		C325.791,527.579,325.719,527.579,325.645,527.579z"/>
	<polygon fill="#FFFFFF" points="400,89.479 14.83,406.27 57.643,458.323 400,176.743 742.357,458.323 785.17,406.27 	"/>
	<path fill="#FFFFFF" d="M400.056,241.646l-248.622,205.19v193.397v58.219v12.174h174.432V577.412c-0.074,0-0.146,0-0.222,0
		c0-16.764,0-31.58,0-49.833c0.073,0,0.146,0,0.222,0v-25.465c0-17.63,0-33.473,0-53.519c17.587,0,31.355,0,48.094,0H474.5v262.028
		h174.066V699.2v-58.968V447.585L400.056,241.646L400.056,241.646z"/>
</g>
</svg>
