<?xml version="1.0" encoding="utf-8"?>
<!-- Generator: Adobe Illustrator 16.0.0, SVG Export Plug-In . SVG Version: 6.00 Build 0)  -->
<!DOCTYPE svg PUBLIC "-//W3C//DTD SVG 1.1//EN" "http://www.w3.org/Graphics/SVG/1.1/DTD/svg11.dtd">
<svg version="1.1" id="Layer_1" xmlns="http://www.w3.org/2000/svg" xmlns:xlink="http://www.w3.org/1999/xlink" x="0px" y="0px"
	 width="50px" height="50px" viewBox="0 0 50 50" enable-background="new 0 0 50 50" xml:space="preserve">
<g>
	<path fill="#FFFFFF" d="M28.328,23.861c-0.985,0-1.996,0.235-2.921,0.648v-1.875c0-0.224-0.184-0.406-0.407-0.406
		s-0.407,0.183-0.407,0.406v1.875c-0.925-0.413-1.936-0.648-2.921-0.648c-3.044,0-5.216,1.972-5.533,5.024
		c-0.652,6.297,7.563,10.71,7.912,10.896L25,40.28l0.95-0.5c0.349-0.186,8.563-4.599,7.911-10.895
		C33.546,25.833,31.373,23.861,28.328,23.861z M25.57,39.062L25,39.361l-0.568-0.299c-0.331-0.177-8.078-4.336-7.483-10.096
		c0.271-2.607,2.124-4.293,4.724-4.293c1.066,0,2.176,0.296,3.127,0.834l0.2,0.114l0.201-0.113c0.951-0.538,2.061-0.834,3.127-0.834
		c2.602,0,4.454,1.687,4.724,4.294C33.646,34.727,25.898,38.887,25.57,39.062z"/>
	<path fill="#FFFFFF" d="M25,27.143c-2.093-1.878-6.434-1.938-6.837,1.951C17.644,34.102,25,37.98,25,37.98s7.355-3.879,6.837-8.888
		C31.436,25.203,27.093,25.264,25,27.143z"/>
	<path fill="#FFFFFF" d="M41.561,9.833c-0.162-0.146-0.424-0.161-0.586,0.017c-0.08,0.064-0.113,0.18-0.113,0.276
		c0,0.114,0.051,0.212,0.113,0.294c0.082,0.065,0.18,0.113,0.293,0.113s0.213-0.048,0.293-0.113c0.064-0.082,0.113-0.18,0.113-0.294
		C41.674,10.029,41.643,9.914,41.561,9.833z"/>
	<path fill="#FFFFFF" d="M23.374,22.979c0.015,0,0.015,0,0.031,0c0.211,0,0.391-0.162,0.407-0.375
		c0.017-0.227-0.163-0.423-0.374-0.438c-0.229-0.016-0.422,0.161-0.44,0.373C22.982,22.768,23.144,22.963,23.374,22.979z"/>
	<path fill="#FFFFFF" d="M26.643,22.979c0.018,0,0.018,0,0.033,0c0.229-0.016,0.389-0.211,0.374-0.44
		c-0.017-0.227-0.211-0.389-0.438-0.373c-0.229,0.016-0.391,0.212-0.375,0.438C26.252,22.816,26.432,22.979,26.643,22.979z"/>
	<path fill="#FFFFFF" d="M21.731,22.799c0.015,0,0.047,0,0.064,0c0.194,0,0.374-0.146,0.406-0.341
		c0.032-0.228-0.114-0.438-0.344-0.473c-0.226-0.032-0.438,0.13-0.47,0.341C21.355,22.556,21.518,22.768,21.731,22.799z"/>
	<path fill="#FFFFFF" d="M28.254,22.799c0.016,0,0.031-0.017,0.064-0.017c0.211-0.031,0.373-0.244,0.342-0.456
		c-0.049-0.227-0.245-0.373-0.473-0.341c-0.229,0.034-0.375,0.245-0.342,0.456S28.059,22.799,28.254,22.799z"/>
	<path fill="#FFFFFF" d="M20.104,22.476c0.032,0.015,0.065,0.015,0.098,0.015c0.179,0,0.357-0.13,0.406-0.31
		c0.05-0.228-0.097-0.438-0.311-0.487c-0.211-0.065-0.438,0.081-0.486,0.292C19.763,22.197,19.892,22.426,20.104,22.476z"/>
	<path fill="#FFFFFF" d="M29.831,22.476c0.032,0,0.065,0,0.099,0c0.228-0.066,0.357-0.278,0.309-0.506
		c-0.049-0.212-0.276-0.342-0.487-0.293c-0.228,0.048-0.356,0.276-0.31,0.488C29.488,22.344,29.65,22.476,29.831,22.476z"/>
	<path fill="#FFFFFF" d="M18.524,22.034c0.034,0.017,0.082,0.017,0.114,0.017c0.18,0,0.342-0.112,0.391-0.276
		c0.066-0.211-0.049-0.456-0.26-0.52c-0.211-0.065-0.44,0.048-0.506,0.259C18.183,21.725,18.298,21.953,18.524,22.034z"/>
	<path fill="#FFFFFF" d="M31.393,22.034c0.049,0,0.082,0,0.131-0.015c0.211-0.081,0.326-0.31,0.262-0.522
		c-0.064-0.211-0.311-0.324-0.521-0.26c-0.212,0.081-0.326,0.31-0.261,0.521C31.066,21.921,31.23,22.034,31.393,22.034z"/>
	<path fill="#FFFFFF" d="M17.127,21.482c0.161,0,0.308-0.099,0.373-0.245c0.098-0.211,0-0.454-0.212-0.537
		c-0.211-0.098-0.438,0.018-0.536,0.211c-0.081,0.214,0.016,0.456,0.212,0.537C17.028,21.466,17.077,21.482,17.127,21.482z"/>
	<path fill="#FFFFFF" d="M32.904,21.466c0.066,0,0.115-0.018,0.164-0.033c0.211-0.097,0.309-0.326,0.211-0.537
		c-0.08-0.212-0.325-0.308-0.521-0.212c-0.212,0.082-0.309,0.326-0.228,0.537C32.613,21.367,32.76,21.466,32.904,21.466z"/>
	<path fill="#FFFFFF" d="M15.305,20.181c-0.099,0.195-0.017,0.438,0.178,0.554c0.05,0.031,0.114,0.049,0.195,0.049
		c0.13,0,0.276-0.083,0.342-0.213c0.114-0.194,0.05-0.455-0.163-0.553C15.662,19.92,15.417,19.985,15.305,20.181z"/>
	<path fill="#FFFFFF" d="M34.175,20.001c-0.196,0.098-0.261,0.342-0.163,0.537c0.082,0.146,0.213,0.228,0.357,0.228
		c0.066,0,0.132-0.017,0.195-0.048c0.195-0.115,0.261-0.359,0.162-0.555C34.613,19.952,34.369,19.887,34.175,20.001z"/>
	<path fill="#FFFFFF" d="M13.938,19.303c-0.114,0.194-0.065,0.438,0.112,0.568c0.066,0.049,0.146,0.064,0.229,0.064
		c0.13,0,0.259-0.049,0.341-0.18c0.112-0.178,0.081-0.438-0.114-0.552C14.328,19.074,14.068,19.123,13.938,19.303z"/>
	<path fill="#FFFFFF" d="M35.523,19.172c-0.18,0.131-0.227,0.373-0.113,0.569c0.083,0.113,0.213,0.179,0.342,0.179
		c0.083,0,0.164-0.033,0.229-0.08c0.179-0.115,0.244-0.376,0.112-0.555C35.965,19.092,35.705,19.041,35.523,19.172z"/>
	<path fill="#FFFFFF" d="M12.686,18.293c-0.146,0.178-0.131,0.438,0.049,0.585c0.064,0.065,0.162,0.099,0.261,0.099
		c0.112,0,0.226-0.049,0.308-0.146c0.146-0.18,0.114-0.439-0.048-0.57C13.075,18.099,12.815,18.13,12.686,18.293z"/>
	<path fill="#FFFFFF" d="M36.779,18.229c-0.166,0.146-0.196,0.391-0.051,0.568c0.082,0.099,0.195,0.146,0.309,0.146
		c0.1,0,0.195-0.031,0.275-0.097c0.164-0.146,0.181-0.407,0.051-0.569C37.201,18.099,36.956,18.082,36.779,18.229z"/>
	<path fill="#FFFFFF" d="M12.099,17.17c-0.146-0.162-0.406-0.162-0.568-0.016c-0.163,0.162-0.163,0.407-0.017,0.586
		c0-0.018,0-0.018,0-0.018c0.081,0.099,0.196,0.131,0.292,0.131c0.099,0,0.212-0.032,0.277-0.098
		c0.179-0.162,0.179-0.422,0.032-0.586L12.099,17.17L12.099,17.17z"/>
	<path fill="#FFFFFF" d="M37.916,17.138c-0.146,0.163-0.146,0.424,0.018,0.569c0.082,0.082,0.178,0.114,0.293,0.114
		c0.098,0,0.211-0.032,0.291-0.13c0.146-0.162,0.146-0.422-0.017-0.568C38.34,16.959,38.079,16.975,37.916,17.138z"/>
	<path fill="#FFFFFF" d="M10.537,15.885c-0.178,0.13-0.211,0.375-0.081,0.554c0.064,0.113,0.195,0.179,0.325,0.179
		c0.082,0,0.163-0.031,0.245-0.081c0.178-0.13,0.211-0.39,0.081-0.568C10.977,15.788,10.717,15.739,10.537,15.885z"/>
	<path fill="#FFFFFF" d="M38.908,15.934c-0.131,0.18-0.081,0.424,0.098,0.57c0.082,0.048,0.164,0.064,0.244,0.064
		c0.113,0,0.244-0.048,0.325-0.162c0.132-0.18,0.098-0.438-0.099-0.568C39.3,15.708,39.038,15.755,38.908,15.934z"/>
	<path fill="#FFFFFF" d="M9.724,14.47c-0.193,0.114-0.276,0.358-0.162,0.555c0.081,0.13,0.211,0.211,0.357,0.211
		c0.064,0,0.131-0.018,0.195-0.05c0.195-0.096,0.276-0.341,0.164-0.537C10.18,14.438,9.936,14.372,9.724,14.47z"/>
	<path fill="#FFFFFF" d="M39.738,14.6c-0.113,0.195-0.031,0.439,0.18,0.555c0.049,0.031,0.113,0.048,0.18,0.048
		c0.146,0,0.291-0.081,0.357-0.228c0.111-0.195,0.031-0.439-0.164-0.537C40.079,14.324,39.837,14.404,39.738,14.6z"/>
	<path fill="#FFFFFF" d="M9.659,13.219c-0.082-0.213-0.309-0.326-0.521-0.262c-0.211,0.081-0.325,0.31-0.244,0.521
		c0.049,0.178,0.211,0.275,0.374,0.275c0.048,0,0.098,0,0.146-0.015C9.626,13.656,9.741,13.43,9.659,13.219z"/>
	<path fill="#FFFFFF" d="M40.861,12.926c-0.213-0.083-0.44,0.031-0.506,0.242c-0.08,0.212,0.033,0.44,0.244,0.521
		c0.049,0.016,0.098,0.016,0.131,0.016c0.181,0,0.326-0.097,0.392-0.275C41.188,13.219,41.088,12.991,40.861,12.926z"/>
	<path fill="#FFFFFF" d="M9.266,11.719c-0.035-0.227-0.242-0.373-0.469-0.339c-0.211,0.031-0.358,0.242-0.325,0.472
		c0.032,0.195,0.212,0.341,0.406,0.341c0.017,0,0.032,0,0.065-0.016C9.166,12.145,9.307,11.938,9.266,11.719z"/>
	<polygon fill="#FFFFFF" points="9.269,11.705 9.266,11.719 9.269,11.721 	"/>
	<path fill="#FFFFFF" d="M41.203,11.346c-0.229-0.047-0.439,0.099-0.473,0.326c-0.033,0.211,0.113,0.439,0.342,0.473
		c0.016,0,0.031,0,0.064,0c0.195,0,0.357-0.132,0.391-0.343C41.575,11.591,41.414,11.38,41.203,11.346z"/>
	<path fill="#FFFFFF" d="M9.024,10.42c0.064-0.082,0.114-0.18,0.114-0.294c0-0.097-0.033-0.212-0.114-0.293
		C8.863,9.688,8.602,9.672,8.438,9.85c-0.081,0.081-0.112,0.18-0.112,0.276c0,0.114,0.049,0.212,0.112,0.277
		c0.082,0.082,0.18,0.13,0.294,0.13C8.829,10.533,8.943,10.485,9.024,10.42z"/>
</g>
</svg>
